<?xml version="1.0" encoding="UTF-8"?>
<svg width="16px" height="14px" viewBox="0 0 16 14" version="1.1" xmlns="http://www.w3.org/2000/svg" xmlns:xlink="http://www.w3.org/1999/xlink">
    <!-- Generator: Sketch 50.2 (55047) - http://www.bohemiancoding.com/sketch -->
    <title>Shape</title>
    <desc>Created with Sketch.</desc>
    <defs></defs>
    <g id="Page-1" stroke="none" stroke-width="1" fill="none" fill-rule="evenodd">
        <g id="Sticky-header-on-scroll" transform="translate(-991.000000, -28.000000)" fill="#8E929C" fill-rule="nonzero">
            <g id="Sticky-header" transform="translate(0.000000, -1.000000)">
                <g id="logo-twitter" transform="translate(779.000000, 27.000000)">
                    <path d="M228,4 C227.4,4.3 226.8,4.4 226.1,4.5 C226.8,4.1 227.3,3.5 227.5,2.7 C226.9,3.1 226.2,3.3 225.4,3.5 C224.8,2.9 223.9,2.5 223,2.5 C221.3,2.5 219.8,4 219.8,5.8 C219.8,6.1 219.8,6.3 219.9,6.5 C217.2,6.4 214.7,5.1 213.1,3.1 C212.8,3.6 212.7,4.1 212.7,4.8 C212.7,5.9 213.3,6.9 214.2,7.5 C213.7,7.5 213.2,7.3 212.7,7.1 C212.7,7.1 212.7,7.1 212.7,7.1 C212.7,8.7 213.8,10 215.3,10.3 C215,10.4 214.7,10.4 214.4,10.4 C214.2,10.4 214,10.4 213.8,10.3 C214.2,11.6 215.4,12.6 216.9,12.6 C215.8,13.5 214.4,14 212.8,14 C212.5,14 212.3,14 212,14 C213.5,14.9 215.2,15.5 217,15.5 C223,15.5 226.3,10.5 226.3,6.2 C226.3,6.1 226.3,5.9 226.3,5.8 C227,5.3 227.6,4.7 228,4 Z" id="Shape"></path>
                </g>
            </g>
        </g>
    </g>
</svg>