<?xml version="1.0" encoding="UTF-8"?>
<svg width="17px" height="15px" viewBox="0 0 17 15" version="1.1" xmlns="http://www.w3.org/2000/svg" xmlns:xlink="http://www.w3.org/1999/xlink">
    <!-- Generator: Sketch 50.2 (55047) - http://www.bohemiancoding.com/sketch -->
    <title>Shape</title>
    <desc>Created with Sketch.</desc>
    <defs></defs>
    <g id="Page-1" stroke="none" stroke-width="1" fill="none" fill-rule="evenodd">
        <g id="checkout-step-1" transform="translate(-644.000000, -460.000000)" fill="#4786D7" fill-rule="nonzero">
            <g id="Hero-header" transform="translate(616.000000, 435.000000)">
                <g id="Group-2">
                    <g id="social-16px_logo-twitter" transform="translate(28.000000, 25.000000)">
                        <path d="M17,2.09375 C16.3625,2.4125 15.725,2.51875 14.98125,2.625 C15.725,2.2 16.25625,1.5625 16.46875,0.7125 C15.83125,1.1375 15.0875,1.35 14.2375,1.5625 C13.6,0.925 12.64375,0.5 11.6875,0.5 C9.88125,0.5 8.2875,2.09375 8.2875,4.00625 C8.2875,4.325 8.2875,4.5375 8.39375,4.75 C5.525,4.64375 2.86875,3.2625 1.16875,1.1375 C0.85,1.66875 0.74375,2.2 0.74375,2.94375 C0.74375,4.1125 1.38125,5.175 2.3375,5.8125 C1.80625,5.8125 1.275,5.6 0.74375,5.3875 C0.74375,5.3875 0.74375,5.3875 0.74375,5.3875 C0.74375,7.0875 1.9125,8.46875 3.50625,8.7875 C3.1875,8.89375 2.86875,8.89375 2.55,8.89375 C2.3375,8.89375 2.125,8.89375 1.9125,8.7875 C2.3375,10.16875 3.6125,11.23125 5.20625,11.23125 C4.0375,12.1875 2.55,12.71875 0.85,12.71875 C0.53125,12.71875 0.31875,12.71875 0,12.71875 C1.59375,13.675 3.4,14.3125 5.3125,14.3125 C11.6875,14.3125 15.19375,9 15.19375,4.43125 C15.19375,4.325 15.19375,4.1125 15.19375,4.00625 C15.9375,3.475 16.575,2.8375 17,2.09375 Z" id="Shape"></path>
                    </g>
                </g>
            </g>
        </g>
    </g>
</svg>