<?xml version="1.0" encoding="UTF-8"?>
<svg width="26px" height="26px" viewBox="0 0 26 26" version="1.1" xmlns="http://www.w3.org/2000/svg" xmlns:xlink="http://www.w3.org/1999/xlink">
    <!-- Generator: Sketch 50.2 (55047) - http://www.bohemiancoding.com/sketch -->
    <title>Group 3</title>
    <desc>Created with Sketch.</desc>
    <defs></defs>
    <g id="Page-1" stroke="none" stroke-width="1" fill="none" fill-rule="evenodd">
        <g id="Landing-page" transform="translate(-119.000000, -718.000000)">
            <g id="Hero-slide" transform="translate(112.000000, -93.000000)">
                <g id="Hero-header" transform="translate(0.000000, 384.000000)">
                    <g id="Group-2" transform="translate(7.000000, 353.000000)">
                        <g id="Group-3" transform="translate(0.000000, 74.000000)">
                            <rect id="Rectangle-3" fill="#411976" x="0" y="0" width="26" height="26" rx="2.7"></rect>
                            <path d="M7.91996061,13.28127 L10.0739355,13.28127 L9.01422593,9.94088112 L7.91996061,13.28127 Z M8.02938715,8 L10.0336205,8 L13.0399705,16.4891952 L11.1163672,16.4891952 L10.5692345,14.7441299 L7.44193945,14.7441299 L6.85449175,16.4891952 L5,16.4891952 L8.02938715,8 Z M16.3632734,11.7550578 C16.1540181,11.9931097 16.0225156,12.3156268 15.968762,12.7226187 L18.520128,12.7226187 C18.4932511,12.28875 18.3617486,11.9595138 18.1256165,11.7349003 C17.8894844,11.5102868 17.5967234,11.3979818 17.2473246,11.3979818 C16.8672095,11.3979818 16.5725287,11.5170059 16.3632734,11.7550578 Z M18.658351,10.3382722 C19.0768615,10.5340891 19.4224156,10.843168 19.6950234,11.2655181 C19.9407544,11.6379541 20.1000931,12.0698966 20.1730445,12.5613586 C20.2152795,12.8493246 20.2325572,13.2639894 20.2248782,13.8053655 L15.928447,13.8053655 C15.9514842,14.4350511 16.1492179,14.8765924 16.5216539,15.1300024 C16.7481872,15.2874239 17.0207909,15.3661334 17.3394733,15.3661334 C17.6773534,15.3661334 17.9518769,15.2701462 18.1630519,15.0781688 C18.2782383,14.9745011 18.3799848,14.8305202 18.4682944,14.646222 L20.1442481,14.646222 C20.1020131,15.018658 19.9081189,15.3968477 19.5625597,15.7808023 C19.0250231,16.3912903 18.2724833,16.6965296 17.3049175,16.6965296 C16.5062918,16.6965296 15.8017456,16.4392839 15.1912577,15.9247846 C14.5807698,15.4102854 14.2755304,14.5732768 14.2755304,13.4137337 C14.2755304,12.327142 14.5510137,11.4939729 15.1019887,10.9142013 C15.6529636,10.3344298 16.3680684,10.0445484 17.2473246,10.0445484 C17.769503,10.0445484 18.2398404,10.1424553 18.658351,10.3382722 Z" id="Ae" fill="#DBC0FF"></path>
                        </g>
                    </g>
                </g>
            </g>
        </g>
    </g>
</svg>