<?xml version="1.0" encoding="UTF-8"?>
<svg width="48px" height="48px" viewBox="0 0 48 48" version="1.1" xmlns="http://www.w3.org/2000/svg" xmlns:xlink="http://www.w3.org/1999/xlink">
    <!-- Generator: Sketch 50.2 (55047) - http://www.bohemiancoding.com/sketch -->
    <title>ic-ae</title>
    <desc>Created with Sketch.</desc>
    <defs></defs>
    <g id="ic-ae" stroke="none" stroke-width="1" fill="none" fill-rule="evenodd">
        <g id="Group-4" transform="translate(1.000000, 1.000000)">
            <rect id="Rectangle-3" stroke="#1C1B1B" stroke-width="2" x="1" y="1" width="44" height="44" rx="9"></rect>
            <path d="M15,24 L18,24 L16.5240642,19 L15,24 Z M14.8982808,16 L18.1389685,16 L23,29 L19.8896848,29 L19.0050143,26.3276798 L13.9484241,26.3276798 L12.9985673,29 L10,29 L14.8982808,16 Z M27.6185102,21.5391304 C27.2904423,21.8985525 27.0842743,22.3855042 27,23 L31,23 C30.9578628,22.3449243 30.7516949,21.8478278 30.3814898,21.5086957 C30.0112848,21.1695635 29.5522977,21 29.0045147,21 C28.4085749,21 27.946578,21.1797083 27.6185102,21.5391304 Z M31.628229,19.4415584 C32.2611511,19.7359322 32.7837394,20.200574 33.1960098,20.8354978 C33.5676338,21.3953852 33.8086051,22.0447294 33.918931,22.7835498 C33.9828038,23.2164524 34.0089332,23.8398228 33.99732,24.6536797 L27.4997394,24.6536797 C27.5345792,25.6002933 27.8336159,26.2640674 28.3968585,26.6450216 C28.7394493,26.8816751 29.1517135,27 29.6336633,27 C30.1446463,27 30.5598138,26.8557013 30.8791781,26.5670996 C31.0533769,26.4112546 31.2072501,26.1948066 31.3408025,25.9177489 L33.8753815,25.9177489 C33.8115086,26.4776363 33.5182785,27.0461732 32.9956822,27.6233766 C32.1827548,28.5411301 31.0446734,29 29.581404,29 C28.373626,29 27.3081264,28.6132795 26.3848731,27.8398268 C25.4616197,27.0663742 25,25.8080895 25,24.0649351 C25,22.4314493 25.4166191,21.1789365 26.2498697,20.3073593 C27.0831204,19.4357821 28.164588,19 29.4943051,19 C30.284006,19 30.9953069,19.1471847 31.628229,19.4415584 Z" id="Ae" fill="#2550EA"></path>
        </g>
    </g>
</svg>