<?xml version="1.0" encoding="UTF-8"?>
<svg width="48px" height="48px" viewBox="0 0 48 48" version="1.1" xmlns="http://www.w3.org/2000/svg" xmlns:xlink="http://www.w3.org/1999/xlink">
    <!-- Generator: Sketch 50.2 (55047) - http://www.bohemiancoding.com/sketch -->
    <title>ic-focus</title>
    <desc>Created with Sketch.</desc>
    <defs></defs>
    <g id="ic-focus" stroke="none" stroke-width="1" fill="none" fill-rule="evenodd" stroke-linecap="square">
        <g id="Group-4" transform="translate(6.000000, 3.000000)" stroke-width="2">
            <polyline id="Shape" stroke="#2550EA" points="5.86896552 0 0 0 0 5.79310345"></polyline>
            <polyline id="Shape" stroke="#2550EA" points="32.2793103 5.79310345 32.2793103 0 26.4103448 0"></polyline>
            <path d="M36.6810345,42 L36.6810345,24.1633394 C36.6810345,21.9833031 34.8747202,20.199637 32.6670027,20.199637 L20.6249074,20.199637 L20.6249074,8.30852995 C20.6249074,6.12849365 18.8185931,4.34482759 16.6108757,4.34482759 C14.4031582,4.34482759 12.5968439,6.12849365 12.5968439,8.30852995 L12.5968439,30.1088929 L7.17790101,25.9470054 C5.5722883,24.7578947 3.56527242,24.3615245 1.75895813,25.154265 C0.15334542,25.7488203 -0.448759345,27.5324864 0.354047008,28.7215971 L8.58281213,42" id="Shape" stroke="#444444"></path>
        </g>
    </g>
</svg>