<?xml version="1.0" encoding="UTF-8"?>
<svg width="68px" height="69px" viewBox="0 0 68 69" version="1.1" xmlns="http://www.w3.org/2000/svg" xmlns:xlink="http://www.w3.org/1999/xlink">
    <!-- Generator: Sketch 50.2 (55047) - http://www.bohemiancoding.com/sketch -->
    <title>Logo</title>
    <desc>Created with Sketch.</desc>
    <defs></defs>
    <g id="Page-1" stroke="none" stroke-width="1" fill="none" fill-rule="evenodd">
        <g id="Logo" transform="translate(-1.000000, 0.000000)">
            <g transform="translate(-13.000000, -11.000000)">
                <path d="M32.8500306,21.3967028 C50.6753125,13.2379274 66.0690403,10.645754 79.0878021,27.2849584 C92.1065638,43.9241628 75.7914595,66.3447512 69.8767637,73.496699 C64.2308943,80.3235865 55.2385398,82.5765336 37.5467865,76.3398216 C18.3345305,69.1956254 12,55.8529314 12,48.0113541 C12,40.1697767 15.0247487,29.5554782 32.8500306,21.3967028 Z" id="Rectangle-6-Copy" fill="#2561EA" opacity="0.355072464" transform="translate(48.000000, 47.500000) rotate(-33.000000) translate(-48.000000, -47.500000) "></path>
                <path d="M34.5415658,22.3519477 C51.248204,14.3498937 62.6303501,14.0344188 74.8321063,30.3540016 C87.0338624,46.6735844 78.3004545,65.5320832 72.7569414,72.5466497 C67.2134283,79.5612161 56.9501433,83.2466309 38.943572,76.2396672 C20.9370006,69.2327035 15,56.1463085 15,48.4553596 C15,40.7644107 17.8349275,30.3540016 34.5415658,22.3519477 Z" id="Rectangle-6" fill="#07167C"></path>
                <path d="M36,57 L36,38.3079123 L40.6908345,38.3079123 L40.6908345,41.3145853 C42.180582,39.1048507 44.0088811,38 46.1757866,38 C47.4439188,38 48.5550568,38.332059 49.5092339,38.9961868 C50.4634111,39.6603147 51.131325,40.6142296 51.5129959,41.85796 C53.0027434,39.2859738 54.9418485,38 57.3303694,38 C59.0909801,38 60.4760551,38.5101633 61.4856361,39.5305052 C62.4952171,40.5508472 63,41.9605884 63,43.7597712 L63,57 L58.3091655,57 L58.3091655,44.5386082 C58.3091655,42.8118757 57.5273676,41.9485224 55.9637483,41.9485224 C54.72024,41.9485224 53.722986,42.6277339 52.9719562,43.9861773 C52.2209265,45.3446207 51.8454172,47.2615065 51.8454172,49.7368923 L51.8454172,57 L47.1545828,57 L47.1545828,44.5386082 C47.1545828,42.8118757 46.3727848,41.9485224 44.8091655,41.9485224 C43.5656573,41.9485224 42.5684032,42.6609398 41.8173735,44.085796 C41.0663437,45.5106522 40.6908345,47.5271557 40.6908345,50.135367 L40.6908345,57 L36,57 Z" id="m" fill="#FFFFFF"></path>
            </g>
        </g>
    </g>
</svg>